<svg width="24" height="24" viewBox="0 0 24 24" fill="none" xmlns="http://www.w3.org/2000/svg">
<path d="M13 5C13 4.44772 12.5523 4 12 4C11.4477 4 11 4.44772 11 5V6C11 6.55228 11.4477 7 12 7C12.5523 7 13 6.55228 13 6V5Z" fill="#00395C" fill-opacity="0.8"/>
<path d="M17.6569 7.75736C18.0474 7.36683 18.0474 6.73367 17.6569 6.34314C17.2663 5.95262 16.6332 5.95262 16.2426 6.34315L15.5355 7.05025C15.145 7.44078 15.145 8.07394 15.5355 8.46447C15.9261 8.85499 16.5592 8.85499 16.9497 8.46447L17.6569 7.75736Z" fill="#00395C" fill-opacity="0.8"/>
<path d="M7.75739 6.34317C7.36686 5.95265 6.7337 5.95265 6.34317 6.34317C5.95265 6.7337 5.95265 7.36686 6.34317 7.75739L7.05022 8.46443C7.44074 8.85495 8.0739 8.85495 8.46443 8.46443C8.85495 8.0739 8.85495 7.44074 8.46443 7.05022L7.75739 6.34317Z" fill="#00395C" fill-opacity="0.8"/>
<path d="M5 11C4.44772 11 4 11.4477 4 12C4 12.5523 4.44772 13 5 13H6C6.55228 13 7 12.5523 7 12C7 11.4477 6.55228 11 6 11H5Z" fill="#00395C" fill-opacity="0.8"/>
<path d="M18 11C17.4477 11 17 11.4477 17 12C17 12.5523 17.4477 13 18 13H19C19.5523 13 20 12.5523 20 12C20 11.4477 19.5523 11 19 11H18Z" fill="#00395C" fill-opacity="0.8"/>
<path d="M16.9497 15.5355C16.5592 15.145 15.926 15.145 15.5355 15.5355C15.145 15.926 15.145 16.5592 15.5355 16.9497L16.2427 17.6569C16.6332 18.0474 17.2664 18.0474 17.6569 17.6569C18.0474 17.2664 18.0474 16.6332 17.6569 16.2427L16.9497 15.5355Z" fill="#00395C" fill-opacity="0.8"/>
<path d="M8.46447 15.5355C8.07394 15.145 7.44078 15.145 7.05025 15.5355L6.34315 16.2426C5.95262 16.6332 5.95262 17.2663 6.34315 17.6569C6.73367 18.0474 7.36683 18.0474 7.75736 17.6569L8.46447 16.9497C8.85499 16.5592 8.85499 15.9261 8.46447 15.5355Z" fill="#00395C" fill-opacity="0.8"/>
<path d="M13 18C13 17.4477 12.5523 17 12 17C11.4477 17 11 17.4477 11 18V19C11 19.5523 11.4477 20 12 20C12.5523 20 13 19.5523 13 19V18Z" fill="#00395C" fill-opacity="0.8"/>
<path fill-rule="evenodd" clip-rule="evenodd" d="M12 8C9.79086 8 8 9.79086 8 12C8 14.2091 9.79086 16 12 16C14.2091 16 16 14.2091 16 12C16 9.79086 14.2091 8 12 8Z" fill="#00395C" fill-opacity="0.8"/>
</svg>
